<svg width="517" height="344" viewBox="0 0 517 344" fill="none" xmlns="http://www.w3.org/2000/svg">
<g filter="url(#filter0_d)">
<g filter="url(#filter1_d)">
<rect x="14" y="48" width="488" height="278" fill="#C4C4C4"/>
</g>
<path d="M502.255 29.2031V12.8694C502.255 11.3244 500.833 10 499.193 10H17.0618C15.4216 10 14 11.3244 14 12.8694V29.2031H502.255Z" fill="#E6E7E7"/>
<path d="M150.036 25.6717C150.254 26.2235 150.036 26.6649 149.38 26.6649H138.554C138.007 26.6649 137.351 26.2235 137.132 25.6717L134.398 19.2706C134.18 18.7188 134.398 18.2773 135.055 18.2773H145.88C146.427 18.2773 147.083 18.7188 147.302 19.2706L150.036 25.6717Z" fill="#DBDCDA"/>
<path d="M502.255 29.2031H14V48.4063H502.255V29.2031Z" fill="#F6F8FA"/>
<path d="M25.8112 38.4734H21.1091L23.2961 36.2662L22.7493 35.7144L19.6875 38.8045L22.7493 42.005L23.2961 41.4532L21.1091 39.246H25.8112V38.4734Z" fill="#D9DAD8"/>
<path d="M34.1211 39.246H38.8232L36.6362 41.4532L37.1829 42.005L40.2448 38.9149L37.1829 35.8247L36.6362 36.3765L38.8232 38.5838H34.1211V39.246Z" fill="#9FA09F"/>
<path d="M50.4154 41.2325C49.1032 41.2325 48.119 40.2392 48.119 38.9149C48.119 37.5905 49.1032 36.5973 50.4154 36.5973C51.0715 36.5973 51.6183 36.818 52.0557 37.2594L50.9621 38.3631H53.5866V35.7144L52.7118 36.5973C52.165 36.0454 51.3996 35.7144 50.5247 35.7144C48.7751 35.7144 47.4629 37.1491 47.4629 38.8045C47.4629 40.5703 48.8845 41.8947 50.5247 41.8947C52.0557 41.8947 53.3679 40.791 53.5866 39.246H52.8211C52.4931 40.46 51.6183 41.2325 50.4154 41.2325Z" fill="#9FA09F"/>
<path d="M496.021 37.0389C496.459 37.0389 496.787 36.7078 496.787 36.2663C496.787 35.8249 496.459 35.4938 496.021 35.4938C495.584 35.4938 495.256 35.8249 495.256 36.2663C495.256 36.7078 495.584 37.0389 496.021 37.0389ZM496.021 38.1425C495.584 38.1425 495.256 38.4736 495.256 38.915C495.256 39.3565 495.584 39.6876 496.021 39.6876C496.459 39.6876 496.787 39.3565 496.787 38.915C496.787 38.4736 496.459 38.1425 496.021 38.1425ZM496.021 40.6808C495.584 40.6808 495.256 41.0119 495.256 41.4534C495.256 41.8948 495.584 42.2259 496.021 42.2259C496.459 42.2259 496.787 41.8948 496.787 41.4534C496.787 41.0119 496.459 40.6808 496.021 40.6808Z" fill="#9FA09F"/>
<path d="M489.57 43.5503C489.57 44.4332 488.914 45.0954 488.039 45.0954H60.8024C59.9276 45.0954 59.2715 44.4332 59.2715 43.5503V34.1695C59.2715 33.2866 59.9276 32.6244 60.8024 32.6244H488.039C488.914 32.6244 489.57 33.2866 489.57 34.1695V43.5503Z" fill="white"/>
<path d="M130.787 29.2031L125.428 15.6285C125.21 15.0767 124.554 14.6353 124.007 14.6353H25.9185C25.3717 14.6353 24.7156 15.0767 24.4969 15.6285L19.1387 29.2031H130.787Z" fill="#F6F8FA"/>
<path d="M122.366 20.4844L122.038 20.1533L120.617 21.588L119.195 20.1533L118.867 20.4844L120.289 21.9191L118.867 23.3538L119.195 23.6849L120.617 22.2502L122.038 23.6849L122.366 23.3538L120.945 21.9191L122.366 20.4844Z" fill="#9FA09F"/>
<path d="M41.0634 21.1588C41.5774 21.1588 41.9762 21.2942 42.2599 21.565C42.5436 21.8358 42.7011 22.1435 42.7324 22.488H42.1964C42.1356 22.2264 42.014 22.0191 41.8316 21.8662C41.6511 21.7133 41.3969 21.6369 41.0689 21.6369C40.6692 21.6369 40.3459 21.7778 40.099 22.0597C39.854 22.3397 39.7315 22.7698 39.7315 23.3501C39.7315 23.8254 39.842 24.2113 40.0631 24.5079C40.286 24.8027 40.6176 24.95 41.0579 24.95C41.4632 24.95 41.7717 24.7944 41.9836 24.483C42.096 24.3191 42.1798 24.1036 42.235 23.8364H42.7711C42.7232 24.2638 42.5648 24.6221 42.2958 24.9114C41.9735 25.2595 41.5387 25.4336 40.9916 25.4336C40.52 25.4336 40.1239 25.2908 39.8034 25.0053C39.3815 24.6277 39.1706 24.0446 39.1706 23.2562C39.1706 22.6574 39.329 22.1665 39.6459 21.7833C39.9885 21.367 40.461 21.1588 41.0634 21.1588ZM43.7576 24.5411C43.7576 24.6848 43.8101 24.7981 43.9151 24.881C44.0201 24.9639 44.1445 25.0053 44.2882 25.0053C44.4632 25.0053 44.6327 24.9648 44.7966 24.8837C45.0729 24.7492 45.2111 24.5291 45.2111 24.2233V23.8226C45.1503 23.8613 45.072 23.8935 44.9762 23.9193C44.8804 23.9451 44.7865 23.9636 44.6944 23.9746L44.3932 24.0133C44.2126 24.0372 44.0772 24.075 43.987 24.1266C43.8341 24.2132 43.7576 24.3513 43.7576 24.5411ZM44.9624 23.5352C45.0766 23.5205 45.1531 23.4726 45.1918 23.3916C45.2139 23.3473 45.2249 23.2838 45.2249 23.2009C45.2249 23.0314 45.1641 22.9089 45.0425 22.8334C44.9228 22.756 44.7506 22.7173 44.5258 22.7173C44.2661 22.7173 44.0818 22.7873 43.9732 22.9273C43.9124 23.0047 43.8728 23.1198 43.8543 23.2727H43.3901C43.3993 22.908 43.5172 22.6547 43.7438 22.5128C43.9722 22.3691 44.2366 22.2973 44.5369 22.2973C44.885 22.2973 45.1678 22.3636 45.3852 22.4962C45.6007 22.6289 45.7085 22.8352 45.7085 23.1152V24.8202C45.7085 24.8718 45.7186 24.9132 45.7389 24.9445C45.761 24.9758 45.8061 24.9915 45.8743 24.9915C45.8964 24.9915 45.9213 24.9906 45.9489 24.9887C45.9765 24.985 46.006 24.9804 46.0373 24.9749V25.3424C45.96 25.3645 45.901 25.3784 45.8605 25.3839C45.8199 25.3894 45.7647 25.3922 45.6947 25.3922C45.5234 25.3922 45.399 25.3314 45.3216 25.2098C45.2811 25.1453 45.2526 25.0541 45.236 24.9362C45.1347 25.0689 44.9891 25.184 44.7994 25.2816C44.6096 25.3793 44.4005 25.4281 44.1721 25.4281C43.8976 25.4281 43.6729 25.3452 43.4979 25.1794C43.3247 25.0118 43.2381 24.8027 43.2381 24.5521C43.2381 24.2776 43.3238 24.0649 43.4951 23.9138C43.6664 23.7628 43.8912 23.6697 44.1693 23.6347L44.9624 23.5352ZM45.1724 21.1782L44.4346 21.9768H44.0533L44.559 21.1782H45.1724ZM46.5402 21.2694H47.0376V25.3286H46.5402V21.2694ZM48.9277 22.2835C49.2612 22.2835 49.532 22.3645 49.7401 22.5266C49.9501 22.6888 50.0763 22.9678 50.1187 23.3639H49.6351C49.6056 23.1815 49.5384 23.0305 49.4334 22.9107C49.3284 22.7892 49.1598 22.7284 48.9277 22.7284C48.6109 22.7284 48.3843 22.8831 48.2479 23.1926C48.1595 23.3934 48.1153 23.6412 48.1153 23.9359C48.1153 24.2325 48.1779 24.4821 48.3032 24.6848C48.4285 24.8874 48.6256 24.9887 48.8946 24.9887C49.1009 24.9887 49.2639 24.9261 49.3837 24.8008C49.5052 24.6737 49.5891 24.5005 49.6351 24.2813H50.1187C50.0634 24.6737 49.9253 24.9611 49.7042 25.1435C49.4831 25.324 49.2004 25.4143 48.8559 25.4143C48.469 25.4143 48.1604 25.2733 47.9302 24.9915C47.6999 24.7078 47.5848 24.3541 47.5848 23.9304C47.5848 23.4109 47.711 23.0065 47.9633 22.7173C48.2157 22.4281 48.5372 22.2835 48.9277 22.2835ZM51.1135 22.3691V24.3338C51.1135 24.4849 51.1374 24.6083 51.1853 24.7041C51.2737 24.881 51.4386 24.9694 51.6799 24.9694C52.0263 24.9694 52.2621 24.8146 52.3873 24.5052C52.4555 24.3394 52.4896 24.1118 52.4896 23.8226V22.3691H52.987V25.3286H52.5172L52.5227 24.892C52.4583 25.0044 52.3781 25.0993 52.2823 25.1766C52.0926 25.3314 51.8623 25.4087 51.5915 25.4087C51.1697 25.4087 50.8823 25.2678 50.7294 24.986C50.6465 24.8349 50.605 24.6332 50.605 24.3808V22.3691H51.1135ZM53.78 21.2694H54.2774V25.3286H53.78V21.2694ZM56.2007 25.0081C56.5304 25.0081 56.7561 24.8837 56.8777 24.635C57.0011 24.3845 57.0628 24.1063 57.0628 23.8005C57.0628 23.5242 57.0186 23.2994 56.9302 23.1263C56.7902 22.8536 56.5488 22.7173 56.2062 22.7173C55.9022 22.7173 55.6812 22.8334 55.543 23.0655C55.4048 23.2976 55.3358 23.5776 55.3358 23.9055C55.3358 24.2205 55.4048 24.483 55.543 24.6931C55.6812 24.9031 55.9004 25.0081 56.2007 25.0081ZM56.22 22.2835C56.6013 22.2835 56.9237 22.4106 57.1872 22.6648C57.4506 22.919 57.5823 23.293 57.5823 23.7867C57.5823 24.2638 57.4663 24.6581 57.2341 24.9694C57.002 25.2807 56.6419 25.4364 56.1537 25.4364C55.7466 25.4364 55.4233 25.2991 55.1838 25.0247C54.9443 24.7483 54.8246 24.378 54.8246 23.9138C54.8246 23.4164 54.9507 23.0204 55.2031 22.7256C55.4555 22.4309 55.7945 22.2835 56.22 22.2835ZM61.8101 24.1183C61.8101 24.4609 61.7595 24.7271 61.6582 24.9169C61.4703 25.2632 61.1129 25.4364 60.586 25.4364C60.282 25.4364 60.0223 25.3544 59.8068 25.1904C59.5912 25.0247 59.4835 24.7308 59.4835 24.309V24.0188H60.0002V24.309C60.0002 24.53 60.049 24.6967 60.1466 24.8091C60.2461 24.9196 60.3999 24.9749 60.6081 24.9749C60.901 24.9749 61.0926 24.8745 61.1829 24.6737C61.2381 24.5503 61.2658 24.3173 61.2658 23.9746V21.2694H61.8101V24.1183ZM63.0785 22.3691V24.3338C63.0785 24.4849 63.1024 24.6083 63.1503 24.7041C63.2388 24.881 63.4036 24.9694 63.645 24.9694C63.9913 24.9694 64.2271 24.8146 64.3524 24.5052C64.4205 24.3394 64.4546 24.1118 64.4546 23.8226V22.3691H64.952V25.3286H64.4822L64.4878 24.892C64.4233 25.0044 64.3431 25.0993 64.2473 25.1766C64.0576 25.3314 63.8273 25.4087 63.5565 25.4087C63.1347 25.4087 62.8473 25.2678 62.6944 24.986C62.6115 24.8349 62.57 24.6332 62.57 24.3808V22.3691H63.0785ZM65.745 22.3691H66.2176V22.8803C66.2563 22.7809 66.3511 22.6602 66.5022 22.5184C66.6532 22.3747 66.8273 22.3028 67.0244 22.3028C67.0337 22.3028 67.0493 22.3037 67.0714 22.3056C67.0935 22.3074 67.1313 22.3111 67.1847 22.3166V22.8417C67.1552 22.8361 67.1276 22.8324 67.1018 22.8306C67.0779 22.8288 67.0512 22.8278 67.0217 22.8278C66.7711 22.8278 66.5786 22.9089 66.4442 23.071C66.3097 23.2313 66.2424 23.4164 66.2424 23.6264V25.3286H65.745V22.3691ZM67.7733 22.383H68.279V25.3286H67.7733V22.383ZM68.6548 21.1782L67.917 21.9768H67.5357L68.0413 21.1782H68.6548ZM69.5059 23.8834C69.5059 24.2003 69.5731 24.4655 69.7076 24.6792C69.8421 24.8929 70.0576 24.9998 70.3542 24.9998C70.5845 24.9998 70.7733 24.9012 70.9207 24.7041C71.0699 24.5052 71.1445 24.2205 71.1445 23.8503C71.1445 23.4763 71.068 23.2 70.9151 23.0213C70.7622 22.8407 70.5734 22.7505 70.3487 22.7505C70.0981 22.7505 69.8946 22.8463 69.738 23.0379C69.5832 23.2294 69.5059 23.5113 69.5059 23.8834ZM70.2547 22.3166C70.4813 22.3166 70.6711 22.3645 70.824 22.4603C70.9124 22.5156 71.0128 22.6123 71.1252 22.7505V21.2555H71.6032V25.3286H71.1556V24.9169C71.0395 25.0993 70.9023 25.231 70.7438 25.312C70.5854 25.3931 70.4039 25.4336 70.1995 25.4336C69.8697 25.4336 69.5842 25.2955 69.3428 25.0191C69.1015 24.741 68.9808 24.3716 68.9808 23.911C68.9808 23.48 69.0905 23.1069 69.3097 22.7919C69.5307 22.4751 69.8458 22.3166 70.2547 22.3166ZM72.341 22.383H72.8467V25.3286H72.341V22.383ZM72.341 21.2694H72.8467V21.8331H72.341V21.2694ZM74.7423 22.2835C75.0757 22.2835 75.3465 22.3645 75.5547 22.5266C75.7647 22.6888 75.8909 22.9678 75.9333 23.3639H75.4497C75.4202 23.1815 75.353 23.0305 75.248 22.9107C75.143 22.7892 74.9744 22.7284 74.7423 22.7284C74.4254 22.7284 74.1988 22.8831 74.0625 23.1926C73.9741 23.3934 73.9299 23.6412 73.9299 23.9359C73.9299 24.2325 73.9925 24.4821 74.1178 24.6848C74.2431 24.8874 74.4402 24.9887 74.7091 24.9887C74.9155 24.9887 75.0785 24.9261 75.1982 24.8008C75.3198 24.6737 75.4036 24.5005 75.4497 24.2813H75.9333C75.878 24.6737 75.7398 24.9611 75.5188 25.1435C75.2977 25.324 75.0149 25.4143 74.6704 25.4143C74.2836 25.4143 73.975 25.2733 73.7447 24.9915C73.5145 24.7078 73.3993 24.3541 73.3993 23.9304C73.3993 23.4109 73.5255 23.0065 73.7779 22.7173C74.0303 22.4281 74.3517 22.2835 74.7423 22.2835ZM77.6051 25.0081C77.9348 25.0081 78.1605 24.8837 78.2821 24.635C78.4055 24.3845 78.4672 24.1063 78.4672 23.8005C78.4672 23.5242 78.423 23.2994 78.3346 23.1263C78.1946 22.8536 77.9532 22.7173 77.6106 22.7173C77.3066 22.7173 77.0856 22.8334 76.9474 23.0655C76.8092 23.2976 76.7401 23.5776 76.7401 23.9055C76.7401 24.2205 76.8092 24.483 76.9474 24.6931C77.0856 24.9031 77.3048 25.0081 77.6051 25.0081ZM77.6244 22.2835C78.0057 22.2835 78.3281 22.4106 78.5915 22.6648C78.855 22.919 78.9867 23.293 78.9867 23.7867C78.9867 24.2638 78.8706 24.6581 78.6385 24.9694C78.4064 25.2807 78.0463 25.4364 77.5581 25.4364C77.151 25.4364 76.8276 25.2991 76.5882 25.0247C76.3487 24.7483 76.2289 24.378 76.2289 23.9138C76.2289 23.4164 76.3551 23.0204 76.6075 22.7256C76.8599 22.4309 77.1988 22.2835 77.6244 22.2835Z" fill="#6E6F71"/>
<path fill-rule="evenodd" clip-rule="evenodd" d="M29.4143 21.7796V24.9488L34.3908 19.1696V26.9926L32.5696 23.6536C32.3527 23.6018 32.195 23.3966 32.195 23.1569C32.195 22.8757 32.4104 22.6476 32.6761 22.6476C32.9417 22.6476 33.1571 22.8756 33.1571 23.1569C33.1571 23.1907 33.154 23.2244 33.1477 23.2576L33.7031 24.2758V21.1067L28.7266 26.8858V19.0627L30.5477 22.4018C30.7646 22.4535 30.9223 22.6588 30.9223 22.8985C30.9223 23.1797 30.7069 23.4078 30.4413 23.4078C30.1756 23.4078 29.9602 23.1797 29.9602 22.8985C29.9602 22.8647 29.9634 22.831 29.9696 22.7978L29.4143 21.7796Z" fill="#3F87F5"/>
<path d="M68.0414 38.1424H67.7452V37.7009C67.7452 37.1491 67.1529 36.7076 66.4125 36.7076C65.6722 36.7076 65.0799 37.1491 65.0799 37.7009V38.1424H64.7837C64.4876 38.1424 64.1914 38.3631 64.1914 38.5838V40.5703C64.1914 40.7911 64.4876 41.0118 64.7837 41.0118H68.0414C68.3375 41.0118 68.6337 40.7911 68.6337 40.5703V38.5838C68.6337 38.3631 68.3375 38.1424 68.0414 38.1424ZM67.301 38.1424H65.6722V37.7009C65.6722 37.3698 65.9683 37.0387 66.5606 37.0387C67.0048 37.0387 67.4491 37.2595 67.4491 37.7009V38.1424H67.301Z" fill="#039447"/>
<path d="M73.937 35.1701H74.4344V36.6844C74.5523 36.5351 74.6582 36.4301 74.7522 36.3694C74.9125 36.2643 75.1123 36.2118 75.3518 36.2118C75.781 36.2118 76.0721 36.362 76.225 36.6623C76.3079 36.8262 76.3494 37.0537 76.3494 37.3448V39.2432H75.8382V37.3779C75.8382 37.1606 75.8105 37.0012 75.7553 36.8999C75.665 36.7378 75.4955 36.6567 75.2468 36.6567C75.0405 36.6567 74.8535 36.7277 74.6859 36.8695C74.5182 37.0114 74.4344 37.2794 74.4344 37.6736V39.2432H73.937V35.1701ZM77.1866 35.4575H77.6896V36.2837H78.1621V36.6899H77.6896V38.6214C77.6896 38.7246 77.7246 38.7937 77.7946 38.8287C77.8332 38.8489 77.8977 38.8591 77.988 38.8591C78.0119 38.8591 78.0377 38.8591 78.0654 38.8591C78.093 38.8572 78.1252 38.8545 78.1621 38.8508V39.2432C78.105 39.2597 78.0451 39.2717 77.9825 39.2791C77.9217 39.2865 77.8554 39.2901 77.7835 39.2901C77.5514 39.2901 77.3939 39.2312 77.311 39.1133C77.2281 38.9935 77.1866 38.8388 77.1866 38.6491V36.6899H76.786V36.2837H77.1866V35.4575ZM78.7617 35.4575H79.2646V36.2837H79.7371V36.6899H79.2646V38.6214C79.2646 38.7246 79.2996 38.7937 79.3696 38.8287C79.4083 38.8489 79.4728 38.8591 79.5631 38.8591C79.587 38.8591 79.6128 38.8591 79.6404 38.8591C79.6681 38.8572 79.7003 38.8545 79.7371 38.8508V39.2432C79.68 39.2597 79.6202 39.2717 79.5575 39.2791C79.4967 39.2865 79.4304 39.2901 79.3586 39.2901C79.1265 39.2901 78.969 39.2312 78.8861 39.1133C78.8032 38.9935 78.7617 38.8388 78.7617 38.6491V36.6899H78.361V36.2837H78.7617V35.4575ZM81.4863 38.9088C81.7184 38.9088 81.9109 38.8121 82.0638 38.6187C82.2186 38.4234 82.2959 38.1323 82.2959 37.7455C82.2959 37.5097 82.2619 37.307 82.1937 37.1375C82.0648 36.8115 81.829 36.6484 81.4863 36.6484C81.1418 36.6484 80.906 36.8207 80.7789 37.1652C80.7107 37.3494 80.6767 37.5834 80.6767 37.867C80.6767 38.0955 80.7107 38.2898 80.7789 38.4501C80.9079 38.7559 81.1437 38.9088 81.4863 38.9088ZM80.1986 36.2975H80.6822V36.6899C80.7817 36.5554 80.8904 36.4513 81.0083 36.3776C81.1759 36.2671 81.373 36.2118 81.5996 36.2118C81.9349 36.2118 82.2195 36.3408 82.4535 36.5987C82.6874 36.8548 82.8044 37.2214 82.8044 37.6985C82.8044 38.3433 82.6358 38.8038 82.2987 39.0801C82.085 39.2551 81.8363 39.3426 81.5526 39.3426C81.3297 39.3426 81.1427 39.2938 80.9917 39.1962C80.9033 39.1409 80.8047 39.046 80.696 38.9116V40.4231H80.1986V36.2975ZM83.6831 38.3147C83.6978 38.4805 83.7393 38.6076 83.8075 38.696C83.9327 38.8563 84.1501 38.9364 84.4596 38.9364C84.6438 38.9364 84.8059 38.8968 84.9459 38.8176C85.0859 38.7366 85.1559 38.6122 85.1559 38.4446C85.1559 38.3175 85.0998 38.2207 84.9874 38.1544C84.9155 38.1139 84.7737 38.0669 84.5618 38.0135L84.1667 37.914C83.9143 37.8514 83.7282 37.7814 83.6085 37.704C83.3948 37.5695 83.288 37.3835 83.288 37.1458C83.288 36.8658 83.3884 36.6392 83.5892 36.4661C83.7918 36.2929 84.0635 36.2063 84.4043 36.2063C84.8501 36.2063 85.1716 36.3371 85.3687 36.5987C85.4921 36.7645 85.552 36.9432 85.5483 37.1348H85.0786C85.0694 37.0224 85.0298 36.9202 84.9597 36.8281C84.8455 36.6973 84.6475 36.6319 84.3656 36.6319C84.1777 36.6319 84.035 36.6678 83.9373 36.7396C83.8415 36.8115 83.7936 36.9063 83.7936 37.0242C83.7936 37.1532 83.8572 37.2564 83.9843 37.3337C84.058 37.3798 84.1667 37.4203 84.3104 37.4553L84.6392 37.5355C84.9966 37.622 85.2361 37.7059 85.3577 37.7869C85.5511 37.914 85.6478 38.1139 85.6478 38.3865C85.6478 38.65 85.5474 38.8775 85.3466 39.0691C85.1477 39.2607 84.8437 39.3565 84.4347 39.3565C83.9944 39.3565 83.6822 39.257 83.498 39.058C83.3156 38.8572 83.218 38.6095 83.2051 38.3147H83.6831ZM86.4796 36.3224H87.0571V36.9248H86.4796V36.3224ZM86.4796 38.6408H87.0571V39.2432H86.4796V38.6408ZM88.715 35.1839H89.1351L87.8474 39.2432H87.4274L88.715 35.1839ZM90.2901 35.1839H90.7101L89.4224 39.2432H89.0024L90.2901 35.1839ZM91.1716 36.2837L91.7408 38.6159L92.3184 36.2837H92.8765L93.4568 38.6021L94.062 36.2837H94.5594L93.7 39.2432H93.1833L92.5809 36.9524L91.9978 39.2432H91.4811L90.6272 36.2837H91.1716ZM95.2613 36.2837L95.8305 38.6159L96.408 36.2837H96.9662L97.5465 38.6021L98.1517 36.2837H98.649L97.7897 39.2432H97.2729L96.6705 36.9524L96.0875 39.2432H95.5707L94.7169 36.2837H95.2613ZM99.3509 36.2837L99.9202 38.6159L100.498 36.2837H101.056L101.636 38.6021L102.241 36.2837H102.739L101.879 39.2432H101.363L100.76 36.9524L100.177 39.2432H99.6604L98.8066 36.2837H99.3509ZM103.33 38.6408H103.908V39.2432H103.33V38.6408ZM105.928 36.198C106.261 36.198 106.532 36.2791 106.74 36.4412C106.95 36.6033 107.076 36.8824 107.119 37.2785H106.635C106.605 37.0961 106.538 36.945 106.433 36.8253C106.328 36.7037 106.16 36.6429 105.928 36.6429C105.611 36.6429 105.384 36.7977 105.248 37.1071C105.159 37.3079 105.115 37.5557 105.115 37.8505C105.115 38.1471 105.178 38.3967 105.303 38.5993C105.428 38.802 105.625 38.9033 105.894 38.9033C106.101 38.9033 106.264 38.8406 106.383 38.7154C106.505 38.5883 106.589 38.4151 106.635 38.1959H107.119C107.063 38.5883 106.925 38.8756 106.704 39.058C106.483 39.2386 106.2 39.3288 105.856 39.3288C105.469 39.3288 105.16 39.1879 104.93 38.906C104.7 38.6223 104.585 38.2686 104.585 37.8449C104.585 37.3254 104.711 36.9211 104.963 36.6319C105.216 36.3426 105.537 36.198 105.928 36.198ZM107.997 38.4556C107.997 38.5993 108.05 38.7126 108.155 38.7955C108.26 38.8784 108.384 38.9199 108.528 38.9199C108.703 38.9199 108.872 38.8793 109.036 38.7983C109.313 38.6638 109.451 38.4437 109.451 38.1379V37.7372C109.39 37.7759 109.312 37.8081 109.216 37.8339C109.12 37.8597 109.026 37.8781 108.934 37.8892L108.633 37.9278C108.452 37.9518 108.317 37.9896 108.227 38.0411C108.074 38.1277 107.997 38.2659 107.997 38.4556ZM109.202 37.4498C109.316 37.4351 109.393 37.3872 109.431 37.3061C109.453 37.2619 109.465 37.1983 109.465 37.1154C109.465 36.946 109.404 36.8235 109.282 36.7479C109.162 36.6705 108.99 36.6319 108.765 36.6319C108.506 36.6319 108.321 36.7019 108.213 36.8419C108.152 36.9192 108.112 37.0344 108.094 37.1873H107.63C107.639 36.8225 107.757 36.5692 107.983 36.4274C108.212 36.2837 108.476 36.2118 108.776 36.2118C109.125 36.2118 109.407 36.2782 109.625 36.4108C109.84 36.5434 109.948 36.7498 109.948 37.0298V38.7347C109.948 38.7863 109.958 38.8278 109.978 38.8591C110.001 38.8904 110.046 38.906 110.114 38.906C110.136 38.906 110.161 38.9051 110.189 38.9033C110.216 38.8996 110.246 38.895 110.277 38.8895V39.257C110.2 39.2791 110.141 39.2929 110.1 39.2984C110.06 39.304 110.004 39.3067 109.934 39.3067C109.763 39.3067 109.639 39.2459 109.561 39.1243C109.521 39.0599 109.492 38.9687 109.476 38.8508C109.374 38.9834 109.229 39.0986 109.039 39.1962C108.849 39.2938 108.64 39.3426 108.412 39.3426C108.137 39.3426 107.912 39.2597 107.737 39.0939C107.564 38.9263 107.478 38.7172 107.478 38.4667C107.478 38.1922 107.563 37.9794 107.735 37.8284C107.906 37.6773 108.131 37.5843 108.409 37.5493L109.202 37.4498ZM110.78 35.1839H111.277V39.2432H110.78V35.1839ZM113.167 36.198C113.501 36.198 113.772 36.2791 113.98 36.4412C114.19 36.6033 114.316 36.8824 114.358 37.2785H113.875C113.845 37.0961 113.778 36.945 113.673 36.8253C113.568 36.7037 113.399 36.6429 113.167 36.6429C112.85 36.6429 112.624 36.7977 112.488 37.1071C112.399 37.3079 112.355 37.5557 112.355 37.8505C112.355 38.1471 112.418 38.3967 112.543 38.5993C112.668 38.802 112.865 38.9033 113.134 38.9033C113.34 38.9033 113.504 38.8406 113.623 38.7154C113.745 38.5883 113.829 38.4151 113.875 38.1959H114.358C114.303 38.5883 114.165 38.8756 113.944 39.058C113.723 39.2386 113.44 39.3288 113.095 39.3288C112.709 39.3288 112.4 39.1879 112.17 38.906C111.94 38.6223 111.824 38.2686 111.824 37.8449C111.824 37.3254 111.951 36.9211 112.203 36.6319C112.455 36.3426 112.777 36.198 113.167 36.198ZM115.353 36.2837V38.2484C115.353 38.3994 115.377 38.5229 115.425 38.6187C115.513 38.7955 115.678 38.8839 115.92 38.8839C116.266 38.8839 116.502 38.7292 116.627 38.4197C116.695 38.2539 116.729 38.0264 116.729 37.7372V36.2837H117.227V39.2432H116.757L116.762 38.8066C116.698 38.9189 116.618 39.0138 116.522 39.0912C116.332 39.2459 116.102 39.3233 115.831 39.3233C115.409 39.3233 115.122 39.1824 114.969 38.9005C114.886 38.7495 114.845 38.5477 114.845 38.2954V36.2837H115.353ZM118.02 35.1839H118.517V39.2432H118.02V35.1839ZM120.44 38.9226C120.77 38.9226 120.996 38.7983 121.117 38.5496C121.241 38.299 121.302 38.0209 121.302 37.7151C121.302 37.4387 121.258 37.214 121.17 37.0408C121.03 36.7682 120.788 36.6319 120.446 36.6319C120.142 36.6319 119.921 36.7479 119.783 36.98C119.644 37.2122 119.575 37.4922 119.575 37.8201C119.575 38.1351 119.644 38.3976 119.783 38.6076C119.921 38.8176 120.14 38.9226 120.44 38.9226ZM120.46 36.198C120.841 36.198 121.163 36.3251 121.427 36.5794C121.69 36.8336 121.822 37.2075 121.822 37.7013C121.822 38.1784 121.706 38.5726 121.474 38.8839C121.242 39.1953 120.881 39.3509 120.393 39.3509C119.986 39.3509 119.663 39.2137 119.423 38.9392C119.184 38.6629 119.064 38.2926 119.064 37.8284C119.064 37.331 119.19 36.9349 119.443 36.6402C119.695 36.3454 120.034 36.198 120.46 36.198ZM122.913 35.7587H122.416V35.1839H122.913V35.7587ZM121.946 39.992C122.169 39.9846 122.303 39.9644 122.347 39.9312C122.393 39.8999 122.416 39.7995 122.416 39.63V36.2975H122.913V39.6825C122.913 39.8981 122.878 40.0593 122.808 40.1661C122.692 40.3466 122.472 40.4369 122.148 40.4369C122.124 40.4369 122.098 40.436 122.071 40.4341C122.045 40.4323 122.003 40.4286 121.946 40.4231V39.992ZM124.173 36.2837V38.2484C124.173 38.3994 124.197 38.5229 124.245 38.6187C124.334 38.7955 124.499 38.8839 124.74 38.8839C125.086 38.8839 125.322 38.7292 125.447 38.4197C125.516 38.2539 125.55 38.0264 125.55 37.7372V36.2837H126.047V39.2432H125.577L125.583 38.8066C125.518 38.9189 125.438 39.0138 125.342 39.0912C125.153 39.2459 124.922 39.3233 124.652 39.3233C124.23 39.3233 123.942 39.1824 123.789 38.9005C123.706 38.7495 123.665 38.5477 123.665 38.2954V36.2837H124.173ZM126.84 36.2837H127.313V36.7949C127.351 36.6954 127.446 36.5748 127.597 36.4329C127.748 36.2892 127.922 36.2174 128.119 36.2174C128.129 36.2174 128.144 36.2183 128.166 36.2201C128.189 36.222 128.226 36.2257 128.28 36.2312V36.7562C128.25 36.7507 128.223 36.747 128.197 36.7452C128.173 36.7433 128.146 36.7424 128.117 36.7424C127.866 36.7424 127.674 36.8235 127.539 36.9856C127.405 37.1458 127.337 37.331 127.337 37.541V39.2432H126.84V36.2837ZM128.711 36.2975H129.216V39.2432H128.711V36.2975ZM128.711 35.1839H129.216V35.7476H128.711V35.1839ZM130.286 37.798C130.286 38.1148 130.353 38.3801 130.488 38.5938C130.622 38.8075 130.838 38.9143 131.134 38.9143C131.364 38.9143 131.553 38.8158 131.701 38.6187C131.85 38.4197 131.924 38.1351 131.924 37.7648C131.924 37.3908 131.848 37.1145 131.695 36.9358C131.542 36.7553 131.353 36.665 131.129 36.665C130.878 36.665 130.675 36.7608 130.518 36.9524C130.363 37.144 130.286 37.4258 130.286 37.798ZM131.035 36.2312C131.261 36.2312 131.451 36.2791 131.604 36.3749C131.692 36.4301 131.793 36.5269 131.905 36.665V35.1701H132.383V39.2432H131.936V38.8314C131.819 39.0138 131.682 39.1455 131.524 39.2266C131.365 39.3076 131.184 39.3482 130.979 39.3482C130.65 39.3482 130.364 39.21 130.123 38.9337C129.881 38.6555 129.761 38.2861 129.761 37.8256C129.761 37.3945 129.87 37.0215 130.09 36.7065C130.311 36.3896 130.626 36.2312 131.035 36.2312ZM133.121 36.2975H133.627V39.2432H133.121V36.2975ZM133.121 35.1839H133.627V35.7476H133.121V35.1839ZM135.522 36.198C135.856 36.198 136.127 36.2791 136.335 36.4412C136.545 36.6033 136.671 36.8824 136.713 37.2785H136.23C136.2 37.0961 136.133 36.945 136.028 36.8253C135.923 36.7037 135.754 36.6429 135.522 36.6429C135.205 36.6429 134.979 36.7977 134.843 37.1071C134.754 37.3079 134.71 37.5557 134.71 37.8505C134.71 38.1471 134.772 38.3967 134.898 38.5993C135.023 38.802 135.22 38.9033 135.489 38.9033C135.695 38.9033 135.858 38.8406 135.978 38.7154C136.1 38.5883 136.184 38.4151 136.23 38.1959H136.713C136.658 38.5883 136.52 38.8756 136.299 39.058C136.078 39.2386 135.795 39.3288 135.45 39.3288C135.064 39.3288 134.755 39.1879 134.525 38.906C134.294 38.6223 134.179 38.2686 134.179 37.8449C134.179 37.3254 134.306 36.9211 134.558 36.6319C134.81 36.3426 135.132 36.198 135.522 36.198ZM138.385 38.9226C138.715 38.9226 138.94 38.7983 139.062 38.5496C139.185 38.299 139.247 38.0209 139.247 37.7151C139.247 37.4387 139.203 37.214 139.115 37.0408C138.975 36.7682 138.733 36.6319 138.391 36.6319C138.087 36.6319 137.866 36.7479 137.727 36.98C137.589 37.2122 137.52 37.4922 137.52 37.8201C137.52 38.1351 137.589 38.3976 137.727 38.6076C137.866 38.8176 138.085 38.9226 138.385 38.9226ZM138.404 36.198C138.786 36.198 139.108 36.3251 139.372 36.5794C139.635 36.8336 139.767 37.2075 139.767 37.7013C139.767 38.1784 139.651 38.5726 139.418 38.8839C139.186 39.1953 138.826 39.3509 138.338 39.3509C137.931 39.3509 137.608 39.2137 137.368 38.9392C137.129 38.6629 137.009 38.2926 137.009 37.8284C137.009 37.331 137.135 36.9349 137.387 36.6402C137.64 36.3454 137.979 36.198 138.404 36.198ZM140.48 38.6408H141.057V39.2432H140.48V38.6408ZM143.077 36.198C143.411 36.198 143.681 36.2791 143.889 36.4412C144.099 36.6033 144.226 36.8824 144.268 37.2785H143.784C143.755 37.0961 143.688 36.945 143.583 36.8253C143.478 36.7037 143.309 36.6429 143.077 36.6429C142.76 36.6429 142.534 36.7977 142.397 37.1071C142.309 37.3079 142.265 37.5557 142.265 37.8505C142.265 38.1471 142.327 38.3967 142.453 38.5993C142.578 38.802 142.775 38.9033 143.044 38.9033C143.25 38.9033 143.413 38.8406 143.533 38.7154C143.655 38.5883 143.738 38.4151 143.784 38.1959H144.268C144.213 38.5883 144.075 38.8756 143.854 39.058C143.632 39.2386 143.35 39.3288 143.005 39.3288C142.618 39.3288 142.31 39.1879 142.08 38.906C141.849 38.6223 141.734 38.2686 141.734 37.8449C141.734 37.3254 141.86 36.9211 142.113 36.6319C142.365 36.3426 142.687 36.198 143.077 36.198ZM145.94 38.9226C146.27 38.9226 146.495 38.7983 146.617 38.5496C146.74 38.299 146.802 38.0209 146.802 37.7151C146.802 37.4387 146.758 37.214 146.669 37.0408C146.529 36.7682 146.288 36.6319 145.945 36.6319C145.641 36.6319 145.42 36.7479 145.282 36.98C145.144 37.2122 145.075 37.4922 145.075 37.8201C145.075 38.1351 145.144 38.3976 145.282 38.6076C145.42 38.8176 145.64 38.9226 145.94 38.9226ZM145.959 36.198C146.341 36.198 146.663 36.3251 146.926 36.5794C147.19 36.8336 147.321 37.2075 147.321 37.7013C147.321 38.1784 147.205 38.5726 146.973 38.8839C146.741 39.1953 146.381 39.3509 145.893 39.3509C145.486 39.3509 145.162 39.2137 144.923 38.9392C144.683 38.6629 144.564 38.2926 144.564 37.8284C144.564 37.331 144.69 36.9349 144.942 36.6402C145.195 36.3454 145.534 36.198 145.959 36.198ZM147.916 36.2837H148.407V36.7037C148.525 36.5582 148.632 36.4522 148.728 36.3859C148.892 36.2736 149.078 36.2174 149.286 36.2174C149.522 36.2174 149.712 36.2754 149.855 36.3915C149.936 36.4578 150.01 36.5554 150.076 36.6844C150.187 36.5259 150.317 36.409 150.466 36.3334C150.615 36.2561 150.783 36.2174 150.969 36.2174C151.367 36.2174 151.638 36.3611 151.781 36.6484C151.859 36.8032 151.897 37.0114 151.897 37.2729V39.2432H151.381V37.1873C151.381 36.9902 151.331 36.8548 151.232 36.7811C151.134 36.7074 151.014 36.6705 150.872 36.6705C150.677 36.6705 150.508 36.7359 150.367 36.8667C150.227 36.9975 150.157 37.2158 150.157 37.5216V39.2432H149.651V37.3116C149.651 37.1108 149.627 36.9644 149.579 36.8723C149.504 36.7341 149.363 36.665 149.156 36.665C148.968 36.665 148.797 36.7378 148.642 36.8833C148.489 37.0289 148.413 37.2923 148.413 37.6736V39.2432H147.916V36.2837ZM152.749 38.6408H153.326V39.2432H152.749V38.6408ZM154.166 35.1701H154.65V36.6429C154.758 36.5011 154.888 36.3933 155.039 36.3196C155.19 36.2441 155.354 36.2063 155.531 36.2063C155.9 36.2063 156.198 36.3334 156.426 36.5877C156.657 36.84 156.772 37.2131 156.772 37.7068C156.772 38.1747 156.659 38.5634 156.432 38.8729C156.205 39.1824 155.891 39.3371 155.49 39.3371C155.265 39.3371 155.075 39.2828 154.921 39.1741C154.828 39.1096 154.73 39.0064 154.625 38.8646V39.2432H154.166V35.1701ZM155.459 38.8978C155.728 38.8978 155.929 38.7909 156.062 38.5772C156.196 38.3635 156.263 38.0817 156.263 37.7316C156.263 37.4203 156.196 37.1624 156.062 36.9579C155.929 36.7534 155.733 36.6512 155.473 36.6512C155.247 36.6512 155.048 36.735 154.876 36.9027C154.707 37.0703 154.622 37.3466 154.622 37.7316C154.622 38.0098 154.657 38.2355 154.727 38.4087C154.858 38.7347 155.102 38.8978 155.459 38.8978ZM157.369 36.2837H157.841V36.7949C157.88 36.6954 157.975 36.5748 158.126 36.4329C158.277 36.2892 158.451 36.2174 158.648 36.2174C158.657 36.2174 158.673 36.2183 158.695 36.2201C158.717 36.222 158.755 36.2257 158.808 36.2312V36.7562C158.779 36.7507 158.751 36.747 158.726 36.7452C158.702 36.7433 158.675 36.7424 158.645 36.7424C158.395 36.7424 158.202 36.8235 158.068 36.9856C157.933 37.1458 157.866 37.331 157.866 37.541V39.2432H157.369V36.2837Z" fill="#039447"/>
<path d="M496.352 17.5047L495.806 16.9529L493.728 19.0498L491.65 16.9529L491.104 17.5047L493.181 19.6016L491.104 21.6985L491.65 22.2503L493.728 20.1534L495.806 22.2503L496.352 21.6985L494.275 19.6016L496.352 17.5047Z" fill="#9FA09F"/>
<path d="M477.652 18.7187V20.5948H475.793V18.7187H477.652ZM479.292 17.0632H474.152V22.2503H479.292V17.0632Z" fill="#9FA09F"/>
</g>
<defs>
<filter id="filter0_d" x="0" y="0" width="516.255" height="344" filterUnits="userSpaceOnUse" color-interpolation-filters="sRGB">
<feFlood flood-opacity="0" result="BackgroundImageFix"/>
<feColorMatrix in="SourceAlpha" type="matrix" values="0 0 0 0 0 0 0 0 0 0 0 0 0 0 0 0 0 0 127 0"/>
<feOffset dy="4"/>
<feGaussianBlur stdDeviation="7"/>
<feColorMatrix type="matrix" values="0 0 0 0 0 0 0 0 0 0 0 0 0 0 0 0 0 0 0.15 0"/>
<feBlend mode="normal" in2="BackgroundImageFix" result="effect1_dropShadow"/>
<feBlend mode="normal" in="SourceGraphic" in2="effect1_dropShadow" result="shape"/>
</filter>
<filter id="filter1_d" x="0" y="38" width="516" height="306" filterUnits="userSpaceOnUse" color-interpolation-filters="sRGB">
<feFlood flood-opacity="0" result="BackgroundImageFix"/>
<feColorMatrix in="SourceAlpha" type="matrix" values="0 0 0 0 0 0 0 0 0 0 0 0 0 0 0 0 0 0 127 0"/>
<feOffset dy="4"/>
<feGaussianBlur stdDeviation="7"/>
<feColorMatrix type="matrix" values="0 0 0 0 0 0 0 0 0 0 0 0 0 0 0 0 0 0 0.15 0"/>
<feBlend mode="normal" in2="BackgroundImageFix" result="effect1_dropShadow"/>
<feBlend mode="normal" in="SourceGraphic" in2="effect1_dropShadow" result="shape"/>
</filter>
</defs>
</svg>
