<svg width="38" height="38" viewBox="0 0 38 38" fill="none" xmlns="http://www.w3.org/2000/svg">
<path d="M30.4652 9.17241L21.2928 0H0.982422V38H30.4652V9.17241Z" fill="white"/>
<path d="M7.53408 15.069H23.9134C24.275 15.069 24.5686 14.7761 24.5686 14.4138C24.5686 14.0515 24.275 13.7586 23.9134 13.7586H7.53408C7.17242 13.7586 6.87891 14.0515 6.87891 14.4138C6.87891 14.7761 7.17242 15.069 7.53408 15.069Z" fill="#D5D0BB"/>
<path d="M7.53408 9.82759H14.0858C14.4475 9.82759 14.741 9.53473 14.741 9.17241C14.741 8.8101 14.4475 8.51724 14.0858 8.51724H7.53408C7.17242 8.51724 6.87891 8.8101 6.87891 9.17241C6.87891 9.53473 7.17242 9.82759 7.53408 9.82759Z" fill="#D5D0BB"/>
<path d="M23.9134 19H7.53408C7.17242 19 6.87891 19.2929 6.87891 19.6552C6.87891 20.0175 7.17242 20.3103 7.53408 20.3103H23.9134C24.275 20.3103 24.5686 20.0175 24.5686 19.6552C24.5686 19.2929 24.275 19 23.9134 19Z" fill="#D5D0BB"/>
<path d="M23.9134 24.2414H7.53408C7.17242 24.2414 6.87891 24.5342 6.87891 24.8966C6.87891 25.2589 7.17242 25.5517 7.53408 25.5517H23.9134C24.275 25.5517 24.5686 25.2589 24.5686 24.8966C24.5686 24.5342 24.275 24.2414 23.9134 24.2414Z" fill="#D5D0BB"/>
<path d="M23.9134 29.4828H7.53408C7.17242 29.4828 6.87891 29.7756 6.87891 30.1379C6.87891 30.5002 7.17242 30.7931 7.53408 30.7931H23.9134C24.275 30.7931 24.5686 30.5002 24.5686 30.1379C24.5686 29.7756 24.275 29.4828 23.9134 29.4828Z" fill="#D5D0BB"/>
<path d="M21.293 0V9.17241H30.4654L21.293 0Z" fill="#D5D0BB"/>
<path d="M37.0173 23.5862H22.6035V38H37.0173V23.5862Z" fill="#21AE5E"/>
<path d="M30.4666 24.6253H29.1562V35.1081H30.4666V24.6253Z" fill="white"/>
<path d="M29.8108 36.0345L25.2246 31.6402L26.1916 30.7138L29.8108 34.1817L33.43 30.7138L34.397 31.6402L29.8108 36.0345Z" fill="white"/>
</svg>
