<svg width="181" height="35" viewBox="0 0 181 35" fill="none" xmlns="http://www.w3.org/2000/svg">
<path fill-rule="evenodd" clip-rule="evenodd" d="M40.8902 11.3717V15.4764C40.3763 14.9046 39.8623 14.4871 39.3516 14.2206C38.8409 13.9539 38.2917 13.819 37.7104 13.819C36.6312 13.819 35.7577 14.1885 35.0894 14.9239C34.4214 15.6594 34.0873 16.6198 34.0873 17.8049C34.0873 18.9098 34.4278 19.825 35.1087 20.5511C35.7898 21.2801 36.6569 21.6431 37.7102 21.6431C38.2915 21.6431 38.8407 21.5115 39.3514 21.2448C39.8621 20.9813 40.3761 20.5607 40.89 19.9858V24.0907C40.2958 24.3796 39.7016 24.5979 39.1139 24.7426C38.5229 24.8871 37.9287 24.9577 37.3249 24.9577C36.5734 24.9577 35.8795 24.8678 35.2436 24.6913C34.6076 24.5115 34.0229 24.2383 33.4899 23.8755C32.4621 23.185 31.6785 22.3175 31.1389 21.2707C30.5993 20.2206 30.3296 19.0418 30.3296 17.7313C30.3296 16.6778 30.5 15.7206 30.8435 14.8567C31.184 13.9926 31.701 13.2122 32.3884 12.5089C33.0404 11.8376 33.7759 11.3366 34.595 11.0027C35.4141 10.6717 36.323 10.5048 37.3251 10.5048C37.9289 10.5048 38.5231 10.5754 39.1141 10.7199C39.7018 10.8644 40.296 11.0827 40.8902 11.3717Z" fill="#3B424D"/>
<path fill-rule="evenodd" clip-rule="evenodd" d="M50.0215 19.8509C50.0215 19.109 49.8254 18.5245 49.4305 18.0908C49.0354 17.6574 48.4958 17.4423 47.8117 17.4423C47.1276 17.4423 46.5912 17.6574 46.1993 18.0878C45.8074 18.5151 45.6116 19.106 45.6116 19.8511C45.6116 20.59 45.8074 21.1745 46.2025 21.6017C46.5976 22.0288 47.134 22.2409 47.8117 22.2409C48.4958 22.2409 49.0354 22.0288 49.4305 21.6017C49.8256 21.1743 50.0215 20.5898 50.0215 19.8509ZM52.9731 15.1103V24.611H49.8896V23.0692C49.4497 23.7274 48.9583 24.2094 48.4091 24.5179C47.8598 24.8231 47.2143 24.977 46.4756 24.977C45.207 24.977 44.1952 24.5144 43.4341 23.5896C42.6762 22.6647 42.2971 21.4215 42.2971 19.867C42.2971 18.3158 42.6952 17.0855 43.4887 16.1702C44.2821 15.2582 45.3485 14.8021 46.691 14.8021C47.4071 14.8021 48.024 14.9562 48.5409 15.2614C49.058 15.5666 49.5013 16.0354 49.8705 16.6713V15.1103H52.9731ZM50.6221 10.5238L47.7154 13.8192H46.2669L47.9788 10.5238H50.6221Z" fill="#3B424D"/>
<path d="M58.9503 10.0226H55.5972V24.6108H58.9503V10.0226Z" fill="#3B424D"/>
<path fill-rule="evenodd" clip-rule="evenodd" d="M68.3354 18.2323C68.0077 17.9434 67.6961 17.7345 67.3943 17.6026C67.0925 17.471 66.7776 17.4036 66.4435 17.4036C65.7787 17.4036 65.2487 17.6221 64.8568 18.062C64.4649 18.5018 64.2691 19.0962 64.2691 19.8509C64.2691 20.5767 64.4745 21.1583 64.8825 21.5917C65.2905 22.0254 65.8365 22.2405 66.527 22.2405C66.8673 22.2405 67.1854 22.1731 67.4842 22.038C67.7828 21.9032 68.0655 21.6945 68.3354 21.4119V24.3184C67.9339 24.5431 67.5323 24.7103 67.131 24.8163C66.7295 24.922 66.3153 24.9768 65.888 24.9768C64.4266 24.9768 63.2414 24.5078 62.3356 23.5701C61.4268 22.6322 60.9739 21.3957 60.9739 19.8668C60.9739 18.3798 61.4364 17.1624 62.3613 16.2182C63.2896 15.2739 64.4747 14.8017 65.9266 14.8017C66.4084 14.8017 66.845 14.8499 67.2337 14.943C67.6224 15.0361 67.9917 15.187 68.3354 15.3959V18.2323Z" fill="#3B424D"/>
<path fill-rule="evenodd" clip-rule="evenodd" d="M80.1485 15.1103V19.96C80.1485 21.033 80.0618 21.8293 79.8884 22.3466C79.7182 22.8637 79.4258 23.3229 79.0181 23.7244C78.5973 24.1452 78.0737 24.4598 77.4475 24.6653C76.818 24.8742 76.0823 24.977 75.2345 24.977C74.3929 24.977 73.6606 24.8742 73.0376 24.6653C72.4113 24.4598 71.8813 24.145 71.4412 23.7244C71.0333 23.3357 70.7443 22.8798 70.5742 22.3562C70.4038 21.8329 70.3203 21.033 70.3203 19.9602V15.1103H73.5194V20.1786C73.5194 20.9718 73.651 21.5467 73.9143 21.9033C74.1778 22.2567 74.6048 22.4333 75.1958 22.4333C75.7931 22.4333 76.2204 22.2599 76.4804 21.913C76.7405 21.563 76.8723 20.9849 76.8723 20.1786V15.1103H80.1485Z" fill="#3B424D"/>
<path d="M86.0036 10.0226H82.6504V24.6108H86.0036V10.0226Z" fill="#3B424D"/>
<path fill-rule="evenodd" clip-rule="evenodd" d="M95.3115 19.883C95.3115 19.1765 95.1317 18.6176 94.7751 18.2097C94.4185 17.8017 93.9337 17.5962 93.3265 17.5962C92.713 17.5962 92.228 17.8017 91.8714 18.2097C91.5183 18.6176 91.3415 19.1763 91.3415 19.883C91.3415 20.5928 91.5183 21.1517 91.8682 21.5564C92.2182 21.9612 92.7066 22.1634 93.3265 22.1634C93.9399 22.1634 94.4249 21.961 94.7815 21.5564C95.1347 21.1519 95.3115 20.593 95.3115 19.883ZM98.6452 19.883C98.6452 20.5671 98.5103 21.2191 98.2439 21.8327C97.9772 22.4494 97.5919 23.0016 97.0812 23.4901C96.5671 23.9783 95.9924 24.3507 95.3562 24.6014C94.7171 24.8518 94.0427 24.977 93.3265 24.977C92.5972 24.977 91.9166 24.8518 91.2807 24.6014C90.6413 24.3507 90.0728 23.9783 89.572 23.4901C89.0677 23.0115 88.6854 22.4654 88.4221 21.8488C88.1589 21.2287 88.0272 20.5737 88.0272 19.883C88.0272 19.1893 88.1589 18.5339 88.4191 17.9173C88.6792 17.3038 89.0615 16.7514 89.5722 16.2602C90.0668 15.7784 90.6321 15.4121 91.271 15.1681C91.9071 14.9241 92.5912 14.8019 93.3267 14.8019C94.0621 14.8019 94.7462 14.9239 95.3791 15.1681C96.012 15.4123 96.5803 15.7784 97.0814 16.2602C97.5983 16.758 97.9872 17.3137 98.2503 17.9271C98.5136 18.5406 98.6452 19.1959 98.6452 19.883Z" fill="#3B424D"/>
<path fill-rule="evenodd" clip-rule="evenodd" d="M109.553 10.8321H113.291V19.7771C113.291 20.7472 113.227 21.4954 113.102 22.0158C112.977 22.5361 112.771 22.9952 112.482 23.3968C112.1 23.9173 111.631 24.3122 111.072 24.5789C110.513 24.8454 109.887 24.977 109.193 24.977C108.326 24.977 107.555 24.7908 106.881 24.4214C106.203 24.052 105.622 23.5059 105.14 22.7799L107.433 20.6988C107.491 21.1066 107.623 21.4216 107.828 21.6397C108.037 21.8613 108.297 21.9704 108.612 21.9704C108.968 21.9704 109.216 21.7714 109.351 21.3763C109.486 20.9811 109.553 19.992 109.553 18.4118V10.8321H109.553Z" fill="#3B424D"/>
<path fill-rule="evenodd" clip-rule="evenodd" d="M125.586 15.1103V19.96C125.586 21.033 125.499 21.8293 125.326 22.3466C125.156 22.8637 124.863 23.3229 124.456 23.7244C124.035 24.1452 123.511 24.4598 122.885 24.6653C122.256 24.8742 121.52 24.977 120.672 24.977C119.831 24.977 119.098 24.8742 118.475 24.6653C117.849 24.4598 117.319 24.145 116.879 23.7244C116.471 23.3357 116.182 22.8798 116.012 22.3562C115.842 21.8329 115.758 21.033 115.758 19.9602V15.1103H118.957V20.1786C118.957 20.9718 119.089 21.5467 119.352 21.9033C119.616 22.2567 120.043 22.4333 120.634 22.4333C121.231 22.4333 121.658 22.2599 121.918 21.913C122.178 21.563 122.31 20.9849 122.31 20.1786V15.1103H125.586Z" fill="#3B424D"/>
<path fill-rule="evenodd" clip-rule="evenodd" d="M128.011 24.6111V15.1104H131.175V17.3491C131.502 16.5299 131.946 15.9197 132.511 15.5119C133.076 15.104 133.76 14.8985 134.563 14.8985C134.695 14.8985 134.83 14.9017 134.965 14.9113C135.1 14.921 135.235 14.937 135.373 14.9563L135.045 18.001C134.846 17.9338 134.647 17.8856 134.454 17.8535C134.258 17.8244 134.072 17.8084 133.889 17.8084C133.076 17.8084 132.45 18.059 132.007 18.5567C131.567 19.0543 131.345 19.7611 131.345 20.6763V24.6109H128.011V24.6111Z" fill="#3B424D"/>
<path fill-rule="evenodd" clip-rule="evenodd" d="M136.699 24.611V15.1103H140.052V24.611H136.699ZM141.093 10.5238L138.186 13.8192H136.738L138.449 10.5238H141.093Z" fill="#3B424D"/>
<path fill-rule="evenodd" clip-rule="evenodd" d="M149.874 19.8702C149.874 19.1313 149.678 18.5468 149.286 18.1196C148.897 17.6923 148.361 17.4804 147.687 17.4804C147.009 17.4804 146.476 17.6923 146.087 18.1196C145.698 18.5468 145.506 19.1313 145.506 19.8702C145.506 20.6153 145.699 21.1998 146.084 21.6236C146.469 22.0476 147.002 22.2596 147.687 22.2596C148.361 22.2596 148.897 22.0476 149.286 21.6204C149.678 21.1934 149.874 20.6089 149.874 19.8702ZM152.848 10.0226V24.6108H149.761V23.069C149.334 23.7082 148.856 24.1866 148.322 24.5014C147.789 24.8195 147.198 24.9768 146.546 24.9768C145.21 24.9768 144.147 24.5143 143.357 23.5926C142.567 22.6709 142.172 21.4278 142.172 19.867C142.172 18.3541 142.567 17.1305 143.354 16.1992C144.141 15.2677 145.165 14.8021 146.431 14.8021C147.234 14.8021 147.889 14.9466 148.393 15.2358C148.897 15.5249 149.347 16.0097 149.742 16.6874C149.704 16.4626 149.678 16.2058 149.658 15.9198C149.639 15.6341 149.63 15.3224 149.63 14.9915V10.023H152.848V10.0226Z" fill="#3B424D"/>
<path fill-rule="evenodd" clip-rule="evenodd" d="M155.26 12.1427C155.26 11.6352 155.44 11.205 155.803 10.8484C156.163 10.492 156.596 10.312 157.107 10.312C157.634 10.312 158.074 10.4886 158.427 10.8388C158.784 11.1889 158.96 11.6224 158.96 12.1427C158.96 12.663 158.78 13.1031 158.417 13.4661C158.058 13.8289 157.621 14.0121 157.107 14.0121C156.603 14.0121 156.169 13.8259 155.806 13.4565C155.443 13.0871 155.26 12.6502 155.26 12.1427ZM155.434 24.611V15.1104H158.787V24.611H155.434Z" fill="#3B424D"/>
<path fill-rule="evenodd" clip-rule="evenodd" d="M168.172 18.2323C167.844 17.9434 167.533 17.7345 167.231 17.6026C166.929 17.471 166.614 17.4036 166.28 17.4036C165.615 17.4036 165.085 17.6221 164.694 18.062C164.302 18.5018 164.106 19.0962 164.106 19.8509C164.106 20.5767 164.311 21.1583 164.719 21.5917C165.127 22.0254 165.673 22.2405 166.364 22.2405C166.704 22.2405 167.022 22.1731 167.321 22.038C167.62 21.9032 167.902 21.6945 168.172 21.4119V24.3184C167.771 24.5431 167.369 24.7103 166.967 24.8163C166.566 24.922 166.152 24.9768 165.725 24.9768C164.263 24.9768 163.078 24.5078 162.172 23.5701C161.263 22.6322 160.811 21.3957 160.811 19.8668C160.811 18.3798 161.273 17.1624 162.198 16.2182C163.126 15.2739 164.311 14.8017 165.763 14.8017C166.245 14.8017 166.682 14.8499 167.071 14.943C167.459 15.0361 167.829 15.187 168.172 15.3959V18.2323H168.172Z" fill="#3B424D"/>
<path fill-rule="evenodd" clip-rule="evenodd" d="M176.978 19.883C176.978 19.1765 176.799 18.6176 176.442 18.2097C176.086 17.8017 175.601 17.5962 174.993 17.5962C174.38 17.5962 173.895 17.8017 173.539 18.2097C173.185 18.6176 173.009 19.1763 173.009 19.883C173.009 20.5928 173.185 21.1517 173.535 21.5564C173.885 21.9612 174.374 22.1634 174.993 22.1634C175.607 22.1634 176.092 21.961 176.449 21.5564C176.802 21.1519 176.978 20.593 176.978 19.883ZM180.313 19.883C180.313 20.5671 180.178 21.2191 179.911 21.8327C179.645 22.4494 179.259 23.0016 178.748 23.4901C178.234 23.9783 177.66 24.3507 177.024 24.6014C176.385 24.8518 175.71 24.977 174.994 24.977C174.265 24.977 173.584 24.8518 172.948 24.6014C172.309 24.3507 171.74 23.9783 171.239 23.4901C170.735 23.0115 170.353 22.4654 170.089 21.8488C169.826 21.2287 169.694 20.5737 169.694 19.883C169.694 19.1893 169.826 18.5339 170.086 17.9173C170.346 17.3038 170.728 16.7514 171.239 16.2602C171.734 15.7784 172.299 15.4121 172.938 15.1681C173.574 14.9241 174.258 14.8019 174.994 14.8019C175.729 14.8019 176.413 14.9239 177.046 15.1681C177.679 15.4121 178.248 15.7784 178.748 16.2602C179.265 16.758 179.654 17.3137 179.917 17.9271C180.181 18.5406 180.313 19.1959 180.313 19.883Z" fill="#3B424D"/>
<path fill-rule="evenodd" clip-rule="evenodd" d="M3.2131 11.9913V25.9789L26.4636 0.471772V35L17.955 20.2625C16.9416 20.0339 16.2048 19.1281 16.2048 18.0702C16.2048 16.8291 17.2113 15.8225 18.4523 15.8225C19.6934 15.8225 20.7 16.8289 20.7 18.0702C20.7 18.2195 20.6851 18.3684 20.6558 18.5147L23.2507 23.0087V9.02125L0 34.5282V0L8.50855 14.7375C9.52192 14.9659 10.2588 15.8719 10.2588 16.9298C10.2588 18.1709 9.25222 19.1775 8.01129 19.1775C6.76995 19.1775 5.7636 18.1709 5.7636 16.9298C5.7636 16.7805 5.77845 16.6318 5.80775 16.4855L3.2131 11.9913Z" fill="#3F87F5"/>
</svg>
