<svg width="59" height="42" viewBox="0 0 59 42" fill="none" xmlns="http://www.w3.org/2000/svg">
<path d="M58.8434 14.4175C58.8434 13.7251 58.7743 13.0328 58.7052 12.3404C58.4978 9.36331 58.1521 5.97081 56.2163 3.61683C54.557 1.60902 51.9298 1.12437 49.51 0.847434C46.3989 0.50126 43.2877 0.293555 40.1766 0.155086C33.816 -0.121853 27.5246 0.0166165 21.1641 0.224321C17.9146 0.293556 14.6652 0.36279 11.4158 0.639729C7.4059 0.985903 3.32685 1.53978 1.46016 5.5554C-0.199113 9.15561 0.00829636 13.6559 0.00829636 17.533C0.00829636 20.9948 0.00829622 24.4565 0.146569 27.9182C0.353979 32.4185 0.561388 38.2342 5.40094 40.1728C7.95899 41.2113 11.0701 41.4883 13.8356 41.6267C16.7393 41.8344 19.6431 41.7652 22.6159 41.8344C28.7691 41.9037 34.8531 41.696 41.0062 41.6267C45.2927 41.5575 49.6483 41.4883 53.7273 40.1036C57.2533 38.9266 58.1521 35.1187 58.636 31.7954C59.12 28.5414 58.9817 25.1488 58.9817 21.8948C58.9126 19.2639 58.9126 16.8407 58.8434 14.4175Z" fill="white"/>
<path d="M38.7245 20.8563C33.6084 17.81 28.5614 14.9021 23.4453 11.8558C23.4453 17.8792 23.4453 23.8334 23.4453 29.7876C28.5614 26.8105 33.6084 23.8334 38.7245 20.8563Z" fill="#FF0000"/>
</svg>
